<?xml version="1.0" encoding="UTF-8"?>
<svg version="1.1" xmlns="http://www.w3.org/2000/svg" width="684" height="129">
<path d="M0 0 C225.72 0 451.44 0 684 0 C684 42.57 684 85.14 684 129 C458.28 129 232.56 129 0 129 C0 86.43 0 43.86 0 0 Z " fill="#FDFDFD" transform="translate(0,0)"/>
<path d="M0 0 C9.57 0 19.14 0 29 0 C29 19.47 29 38.94 29 59 C19.43 59 9.86 59 0 59 C0 39.53 0 20.06 0 0 Z " fill="#FF0101" transform="translate(98,33)"/>
<path d="M0 0 C9.24 0 18.48 0 28 0 C28 19.47 28 38.94 28 59 C18.76 59 9.52 59 0 59 C0 39.53 0 20.06 0 0 Z " fill="#FF0000" transform="translate(6,33)"/>
<path d="M0 0 C2.15377564 2.62198774 3.40072174 4.64404172 4 8 C5.65 7.67 7.3 7.34 9 7 C8.85769192 8.41702513 8.71099254 9.8336096 8.5625 11.25 C8.48128906 12.03890625 8.40007812 12.8278125 8.31640625 13.640625 C8 16 8 16 7 20 C9.64 18.02 12.28 16.04 15 14 C15.495 15.98 15.495 15.98 16 18 C18.31 17.67 20.62 17.34 23 17 C22.73958333 18.98567708 22.47916667 20.97135417 22.21875 22.95703125 C21.946767 25.15471706 21.946767 25.15471706 22 28 C19.76827988 30.1165917 17.38504382 31.96547477 14.96875 33.8671875 C12.43476658 36.12857588 12.43476658 36.12857588 13 41 C9.37 40.67 5.74 40.34 2 40 C2 43.96 2 47.92 2 52 C1.01 52 0.02 52 -1 52 C-1 47.71 -1 43.42 -1 39 C-2.5778125 39.495 -2.5778125 39.495 -4.1875 40 C-7.38873357 40.83966782 -9.7411008 41.19750904 -13 41 C-12.89558594 40.09121094 -12.79117188 39.18242188 -12.68359375 38.24609375 C-12.65331013 34.86627932 -12.65331013 34.86627932 -15.22265625 32.91015625 C-16.15980469 32.30042969 -17.09695312 31.69070312 -18.0625 31.0625 C-20.83984375 29.0234375 -20.83984375 29.0234375 -23 27 C-23.125 23.1875 -23.125 23.1875 -22 20 C-22 19.01 -22 18.02 -22 17 C-19.69 17 -17.38 17 -15 17 C-14.67 16.01 -14.34 15.02 -14 14 C-11.69 15.98 -9.38 17.96 -7 20 C-7.33 18.5975 -7.66 17.195 -8 15.75 C-8.73516599 12.62554456 -9 10.27217135 -9 7 C-7.35 7 -5.7 7 -4 7 C-2.68 4.69 -1.36 2.38 0 0 Z " fill="#FF0808" transform="translate(66,37)"/>
<path d="M0 0 C1.32 0 2.64 0 4 0 C4 7.92 4 15.84 4 24 C2.02 24 0.04 24 -2 24 C-2.33 24.33 -2.66 24.66 -3 25 C-9.2955665 24.53366174 -9.2955665 24.53366174 -11.67578125 22.73046875 C-13.2957647 20.61349923 -13.54995411 19.20130871 -13.8125 16.5625 C-13.94591797 15.41974609 -13.94591797 15.41974609 -14.08203125 14.25390625 C-13.98594362 11.61378432 -13.43766777 10.2056727 -12 8 C-8.53001271 5.68667514 -7.07490752 5.66042437 -3 6 C-2.01 6.66 -1.02 7.32 0 8 C0 5.36 0 2.72 0 0 Z " fill="#161616" transform="translate(311,68)"/>
<path d="M0 0 C1.32 0 2.64 0 4 0 C4 8.25 4 16.5 4 25 C2.35 24.67 0.7 24.34 -1 24 C-1.66 24.33 -2.32 24.66 -3 25 C-5.875 25.375 -5.875 25.375 -9 25 C-11.787499 22.7993429 -12.81242728 21.08511694 -13.41796875 17.58203125 C-13.65872607 13.17682293 -13.69892078 10.83870494 -10.8125 7.375 C-7.84257796 5.92303812 -6.24826254 5.47325472 -3 6 C-2.34 6.66 -1.68 7.32 -1 8 C-0.67 5.36 -0.34 2.72 0 0 Z " fill="#121212" transform="translate(430,68)"/>
<path d="M0 0 C1.32 0 2.64 0 4 0 C4 7.92 4 15.84 4 24 C2.35 24 0.7 24 -1 24 C-1.33 24.33 -1.66 24.66 -2 25 C-4.8125 25.3125 -4.8125 25.3125 -8 25 C-10.30275556 23.1329009 -11.67823871 21.64352259 -13 19 C-13.68660598 12.01950585 -13.68660598 12.01950585 -10.9375 7.9375 C-8 6 -8 6 -4.1875 6.1875 C-2.6096875 6.5896875 -2.6096875 6.5896875 -1 7 C-0.67 4.69 -0.34 2.38 0 0 Z " fill="#141414" transform="translate(560,68)"/>
<path d="M0 0 C2.87305972 1.40460697 4.74510999 2.74510999 7 5 C7 5.99 7 6.98 7 8 C5.68 8 4.36 8 3 8 C2.566875 7.505 2.13375 7.01 1.6875 6.5 C-0.07199386 4.64274745 -0.07199386 4.64274745 -3.5625 4.625 C-4.696875 4.74875 -5.83125 4.8725 -7 5 C-9.70113142 9.05169714 -9.52296895 12.25041316 -9 17 C-8.22303517 19.67734485 -8.22303517 19.67734485 -6 21 C-3.24485856 21.32061804 -0.79253064 21.18311676 2 21 C2.33 19.35 2.66 17.7 3 16 C1.02 16 -0.96 16 -3 16 C-3 14.68 -3 13.36 -3 12 C0.63 12 4.26 12 8 12 C8 16.29 8 20.58 8 25 C7.01 25 6.02 25 5 25 C5 24.34 5 23.68 5 23 C3.948125 23.7425 3.948125 23.7425 2.875 24.5 C-0.51524386 26.26882288 -2.22446543 26.53936208 -6 26 C-10.84664831 23.52915968 -13.18671898 21.13762955 -15 16 C-15.54016234 11.6787013 -15.3251256 9.60380468 -13.25 5.75 C-9.07767797 0.6504953 -6.76906681 -0.71253335 0 0 Z " fill="#1B1B1B" transform="translate(191,33)"/>
<path d="M0 0 C2.31735765 1.83146008 3.38500151 3.44726045 5 6 C5 6.66 5 7.32 5 8 C3.35 8 1.7 8 0 8 C-0.33 7.01 -0.66 6.02 -1 5 C-3.82883747 3.58558126 -5.87376745 3.68099668 -9 4 C-11.78460056 6.32050046 -11.98117226 7.82741235 -12.375 11.4375 C-11.97163968 15.26942305 -11.64432803 17.18507016 -9 20 C-5.5 20.83333333 -5.5 20.83333333 -2 20 C0.00864359 17.6273026 0.00864359 17.6273026 1 15 C-1.31 15 -3.62 15 -6 15 C-6 13.68 -6 12.36 -6 11 C-2.37 11 1.26 11 5 11 C5 15.29 5 19.58 5 24 C4.01 24 3.02 24 2 24 C2 23.34 2 22.68 2 22 C1.319375 22.495 0.63875 22.99 -0.0625 23.5 C-3.72431906 25.36986505 -5.93214595 25.50848176 -10 25 C-13.53760387 22.79882426 -15.43394646 20.8219985 -17 17 C-17.7121481 11.98184011 -17.52912753 8.05825505 -15.25 3.5 C-10.78959836 -1.45600182 -6.24956635 -1.94603934 0 0 Z " fill="#171717" transform="translate(434,34)"/>
<path d="M0 0 C3.97245401 0.70936679 5.67231707 1.79731707 8.5 4.625 C10.25472073 8.13444146 9.45563207 11.91451133 8.5 15.625 C5.91408453 18.65421527 4.41044732 19.47325878 0.5 20.125 C-3.41044732 19.47325878 -4.91408453 18.65421527 -7.5 15.625 C-8.78771446 11.87568772 -9.26764207 8.41982027 -7.6796875 4.70703125 C-5.44579336 1.59289406 -3.73628069 0.66719298 0 0 Z " fill="#141414" transform="translate(184.5,73.375)"/>
<path d="M0 0 C3.97245401 0.70936679 5.67231707 1.79731707 8.5 4.625 C10.25472073 8.13444146 9.45563207 11.91451133 8.5 15.625 C5.91408453 18.65421527 4.41044732 19.47325878 0.5 20.125 C-3.41044732 19.47325878 -4.91408453 18.65421527 -7.5 15.625 C-8.78771446 11.87568772 -9.26764207 8.41982027 -7.6796875 4.70703125 C-5.44579336 1.59289406 -3.73628069 0.66719298 0 0 Z " fill="#141414" transform="translate(450.5,39.375)"/>
<path d="M0 0 C2.9375 1.9375 2.9375 1.9375 5 5 C5.87209775 9.29928892 5.71988642 12.71672421 3.5625 16.5625 C-0.2678053 18.71120785 -3.7178284 18.8878631 -8 18 C-10.71195062 15.88335562 -11.70009046 14.43033781 -12.40625 11.0625 C-12.70728149 7.08888431 -12.24292204 5.35334115 -9.9375 2 C-6.22192774 -0.52975133 -4.4117517 -0.7878128 0 0 Z " fill="#0E0E0E" transform="translate(214,40)"/>
<path d="M0 0 C2.475 0.495 2.475 0.495 5 1 C5.33 0.67 5.66 0.34 6 0 C9.36629251 -0.14636054 11.78419562 -0.07193479 15 1 C15.66 0.67 16.32 0.34 17 0 C20 -0.1875 20 -0.1875 23 0 C25 2 25 2 25.1953125 5.6953125 C25.182009 7.17200108 25.15814835 8.64862358 25.125 10.125 C25.11597656 10.87910156 25.10695313 11.63320313 25.09765625 12.41015625 C25.0740687 14.27357254 25.03819719 16.13682593 25 18 C23.68 18 22.36 18 21 18 C20.67 13.38 20.34 8.76 20 4 C18.68 4 17.36 4 16 4 C15.67 8.62 15.34 13.24 15 18 C13.68 18 12.36 18 11 18 C10.67 13.38 10.34 8.76 10 4 C8.35 4.33 6.7 4.66 5 5 C4.67 9.29 4.34 13.58 4 18 C2.68 18 1.36 18 0 18 C0 12.06 0 6.12 0 0 Z " fill="#121212" transform="translate(290,40)"/>
<path d="M0 0 C3.375 1.6875 3.375 1.6875 6 4 C6.875 6.75 6.875 6.75 7 9 C4.625 8.6875 4.625 8.6875 2 8 C1.34 7.01 0.68 6.02 0 5 C-4.08685537 4.47487399 -4.08685537 4.47487399 -7.671875 6.2109375 C-9.42996653 8.57919021 -9.36906139 10.07621148 -9.3125 13 C-9.30863281 13.86625 -9.30476562 14.7325 -9.30078125 15.625 C-9.1458217 18.26417937 -9.1458217 18.26417937 -7 21 C-3.54250051 21.66676878 -3.54250051 21.66676878 0 21 C1.71711243 18.55503957 1.71711243 18.55503957 3 16 C4.32 16 5.64 16 7 16 C5.67040951 22.40620872 5.67040951 22.40620872 2.8125 24.9375 C-0.80366954 26.30360849 -3.15754731 26.53929161 -7 26 C-11.15621804 23.25532771 -13.83163021 20.90715312 -15 16 C-15.46725516 11.71682772 -15.30749558 9.57106322 -13.25 5.75 C-9.10409254 0.68277978 -6.7443283 -0.81397066 0 0 Z " fill="#151515" transform="translate(231,67)"/>
<path d="M0 0 C2.20703125 1.1015625 2.20703125 1.1015625 4 3 C4.390625 6.13671875 4.390625 6.13671875 4.25 9.6875 C4.21390625 10.86699219 4.1778125 12.04648438 4.140625 13.26171875 C4.07101562 14.61716797 4.07101562 14.61716797 4 16 C4.66 16 5.32 16 6 16 C6 16.99 6 17.98 6 19 C4.35 19 2.7 19 1 19 C1 18.34 1 17.68 1 17 C0.46375 17.33 -0.0725 17.66 -0.625 18 C-3.62934544 19.26498755 -5.76767442 19.34386442 -9 19 C-10.875 17.8125 -10.875 17.8125 -12 16 C-12.4375 13.5 -12.4375 13.5 -12 11 C-8.94098408 7.57390217 -5.40967012 7.42400674 -1 7 C-1 6.01 -1 5.02 -1 4 C-2.98 4 -4.96 4 -7 4 C-7 4.66 -7 5.32 -7 6 C-8.32 6 -9.64 6 -11 6 C-10.6875 4.125 -10.6875 4.125 -10 2 C-6.28986601 -0.47342266 -4.38939738 -0.38503486 0 0 Z " fill="#151515" transform="translate(540,74)"/>
<path d="M0 0 C2.3381615 0.29758419 4.67182036 0.63239269 7 1 C7.66 1 8.32 1 9 1 C9.33 0.67 9.66 0.34 10 0 C15.25657611 -0.45709357 15.25657611 -0.45709357 17.68359375 1.03515625 C19.71226431 4.06311261 19.31525555 7.17913609 19.1875 10.6875 C19.16719727 11.7403418 19.16719727 11.7403418 19.14648438 12.81445312 C19.11120182 14.54329829 19.05739583 16.27174765 19 18 C17.68 18 16.36 18 15 18 C14.67 13.05 14.34 8.1 14 3 C12.35 3.66 10.7 4.32 9 5 C8.67 9.29 8.34 13.58 8 18 C6.68 18 5.36 18 4 18 C3.67 13.38 3.34 8.76 3 4 C-0.74275212 4.57125354 -0.74275212 4.57125354 -2 6 C-2.23427778 8.01594582 -2.41336124 10.038474 -2.5625 12.0625 C-2.68818359 13.71958984 -2.68818359 13.71958984 -2.81640625 15.41015625 C-2.87699219 16.26480469 -2.93757812 17.11945312 -3 18 C-3.99 18 -4.98 18 -6 18 C-6 12.39 -6 6.78 -6 1 C-4.35 1 -2.7 1 -1 1 C-0.67 0.67 -0.34 0.34 0 0 Z " fill="#0C0C0C" transform="translate(575,40)"/>
<path d="M0 0 C2.20703125 1.6328125 2.20703125 1.6328125 4 4 C4.390625 7.015625 4.390625 7.015625 4.25 10.25 C4.21390625 11.32765625 4.1778125 12.4053125 4.140625 13.515625 C4.07101562 14.74539062 4.07101562 14.74539062 4 16 C4.66 16 5.32 16 6 16 C5.67 16.99 5.34 17.98 5 19 C4.05125 18.814375 3.1025 18.62875 2.125 18.4375 C-0.89868793 17.71313368 -0.89868793 17.71313368 -3 19 C-8.28923988 19.45014808 -8.28923988 19.45014808 -10.875 17.8125 C-12.42229478 15.31963619 -12.50405716 13.88032665 -12 11 C-8.94098408 7.57390217 -5.40967012 7.42400674 -1 7 C-0.67 6.01 -0.34 5.02 0 4 C-1.98 4 -3.96 4 -6 4 C-6.33 4.66 -6.66 5.32 -7 6 C-8.32 6 -9.64 6 -11 6 C-10.6875 4.125 -10.6875 4.125 -10 2 C-6.2794164 -0.48038907 -4.40203429 -0.46337203 0 0 Z " fill="#191919" transform="translate(502,74)"/>
<path d="M0 0 C2.20703125 1.1328125 2.20703125 1.1328125 4 3 C4.390625 5.91796875 4.390625 5.91796875 4.25 9.1875 C4.21390625 10.27417969 4.1778125 11.36085938 4.140625 12.48046875 C4.07101562 13.72763672 4.07101562 13.72763672 4 15 C4.66 15 5.32 15 6 15 C6 16.32 6 17.64 6 19 C4.989375 18.814375 3.97875 18.62875 2.9375 18.4375 C-0.97224645 17.80994185 -0.97224645 17.80994185 -4.6875 18.6875 C-8 19 -8 19 -10.5 17.375 C-12 15 -12 15 -11.9375 12.375 C-11 10 -11 10 -8 8 C-5.67612053 7.60612212 -3.34206251 7.26513915 -1 7 C-1 6.01 -1 5.02 -1 4 C-2.65 4 -4.3 4 -6 4 C-6.33 4.66 -6.66 5.32 -7 6 C-8.32 6 -9.64 6 -11 6 C-10.6875 4.125 -10.6875 4.125 -10 2 C-6.28986601 -0.47342266 -4.38939738 -0.38503486 0 0 Z " fill="#0F0F0F" transform="translate(252,74)"/>
<path d="M0 0 C2.2109375 1.12890625 2.2109375 1.12890625 4 3 C4.390625 5.91796875 4.390625 5.91796875 4.25 9.1875 C4.21390625 10.27417969 4.1778125 11.36085938 4.140625 12.48046875 C4.07101562 13.72763672 4.07101562 13.72763672 4 15 C4.66 15 5.32 15 6 15 C6 16.32 6 17.64 6 19 C4.989375 18.814375 3.97875 18.62875 2.9375 18.4375 C-0.97514341 17.83226065 -0.97514341 17.83226065 -4.75 18.5625 C-8 19 -8 19 -11 17 C-11.375 13.5 -11.375 13.5 -11 10 C-7.55549263 7.70366176 -5.06187717 7.45983515 -1 7 C-1 6.01 -1 5.02 -1 4 C-1.721875 4.144375 -2.44375 4.28875 -3.1875 4.4375 C-7.09375 5.21875 -7.09375 5.21875 -11 6 C-8.73226795 -0.31725357 -6.65858671 -0.45921288 0 0 Z " fill="#111111" transform="translate(290,74)"/>
<path d="M0 0 C3.16025526 1.80586015 4.57721965 2.82922364 5.8125 6.25 C5.874375 6.8275 5.93625 7.405 6 8 C4.35 8 2.7 8 1 8 C0.67 6.68 0.34 5.36 0 4 C-4.98567094 3.59182245 -4.98567094 3.59182245 -9.4375 5.5625 C-11.59761052 8.93227241 -11.4835611 11.06243106 -11 15 C-10.13353917 18.00155751 -10.13353917 18.00155751 -8 20 C-4.37400578 20.41725678 -4.37400578 20.41725678 -1 20 C-0.34 18.35 0.32 16.7 1 15 C2.65 15 4.3 15 6 15 C5.78698668 18.72773314 4.99909564 20.00099259 2.4375 22.8125 C-0.05064692 24.70253468 -1.94157778 25.39699655 -5.0625 25.5625 C-9.42643241 24.93908108 -11.04439777 24.21639067 -14 21 C-16.55863236 16.73561273 -16.90503116 11.82957539 -16 7 C-12.69342673 -0.12084873 -7.40387002 -1.56715249 0 0 Z " fill="#111111" transform="translate(482,68)"/>
<path d="M0 0 C3.86310018 0.33302588 5.01798602 0.54610525 7.625 3.3125 C8.015625 6.44921875 8.015625 6.44921875 7.875 10 C7.83890625 11.17949219 7.8028125 12.35898438 7.765625 13.57421875 C7.69601562 14.92966797 7.69601562 14.92966797 7.625 16.3125 C8.285 16.3125 8.945 16.3125 9.625 16.3125 C9.625 17.3025 9.625 18.2925 9.625 19.3125 C8.490625 19.126875 7.35625 18.94125 6.1875 18.75 C5.011875 18.605625 3.83625 18.46125 2.625 18.3125 C2.295 18.6425 1.965 18.9725 1.625 19.3125 C-2.40660191 19.57543056 -3.93392734 19.60654844 -7.375 17.3125 C-7.75 13.8125 -7.75 13.8125 -7.375 10.3125 C-3.93049263 8.01616176 -1.43687717 7.77233515 2.625 7.3125 C2.625 6.3225 2.625 5.3325 2.625 4.3125 C1.903125 4.456875 1.18125 4.60125 0.4375 4.75 C-3.46875 5.53125 -3.46875 5.53125 -7.375 6.3125 C-4.62919355 0.42862903 -4.62919355 0.42862903 0 0 Z " fill="#0F0F0F" transform="translate(575.375,73.6875)"/>
<path d="M0 0 C5.1346401 0.35411311 5.1346401 0.35411311 7.625 2.25 C8.19921875 5.1484375 8.19921875 5.1484375 8.3125 8.625 C8.50487597 14.00911442 8.50487597 14.00911442 9.625 19.25 C8.8 19.064375 7.975 18.87875 7.125 18.6875 C4.11618538 18.31139817 2.33608108 18.37672266 -0.5625 18.875 C-4.375 19.25 -4.375 19.25 -6.375 18.125 C-7.71613399 15.61037377 -7.79680059 14.06200394 -7.375 11.25 C-5.73203667 9.09589252 -4.77891002 8.34138551 -2.11328125 7.73828125 C-1.31277344 7.68027344 -0.51226562 7.62226562 0.3125 7.5625 C1.12074219 7.49675781 1.92898438 7.43101563 2.76171875 7.36328125 C3.68404297 7.30720703 3.68404297 7.30720703 4.625 7.25 C4.295 6.26 3.965 5.27 3.625 4.25 C1.20854218 4.08312552 1.20854218 4.08312552 -1.375 4.25 C-2.035 4.91 -2.695 5.57 -3.375 6.25 C-4.365 6.25 -5.355 6.25 -6.375 6.25 C-5.5008869 1.87943451 -4.74975318 0.35183357 0 0 Z " fill="#0E0E0E" transform="translate(325.375,73.75)"/>
<path d="M0 0 C4.37384952 0.85914901 5.88134295 2.11660402 8.5 5.6875 C8.5 7.3375 8.5 8.9875 8.5 10.6875 C4.21 10.6875 -0.08 10.6875 -4.5 10.6875 C-3.84 12.0075 -3.18 13.3275 -2.5 14.6875 C1.0219721 14.76754482 4.11981469 14.72755702 7.5 13.6875 C5.625 17.5625 5.625 17.5625 4.5 18.6875 C2.5390625 18.890625 2.5390625 18.890625 0.125 18.9375 C-0.66648438 18.96328125 -1.45796875 18.9890625 -2.2734375 19.015625 C-4.5 18.6875 -4.5 18.6875 -6.2265625 17.44140625 C-8.59295523 14.1821721 -8.82175206 10.6289627 -8.5 6.6875 C-6.76141566 2.57507936 -4.41686153 0.8675978 0 0 Z " fill="#0E0E0E" transform="translate(247.5,39.3125)"/>
<path d="M0 0 C3.76972041 0.70682258 5.44273427 1.70437947 8 4.5625 C8 6.5425 8 8.5225 8 10.5625 C4.04 10.5625 0.08 10.5625 -4 10.5625 C-3.67 12.2125 -3.34 13.8625 -3 15.5625 C-0.69 15.5625 1.62 15.5625 4 15.5625 C4 14.9025 4 14.2425 4 13.5625 C5.32 13.5625 6.64 13.5625 8 13.5625 C6.63016497 16.72365776 6.0109362 17.5552092 3 19.5625 C0.0625 19.9375 0.0625 19.9375 -3 19.5625 C-5.30275556 17.6954009 -6.67823871 16.20602259 -8 13.5625 C-8.69093988 6.53794454 -8.69093988 6.53794454 -5.875 2.5625 C-3 0.5625 -3 0.5625 0 0 Z " fill="#0F0F0F" transform="translate(557,39.4375)"/>
<path d="M0 0 C3.76972041 0.70682258 5.44273427 1.70437947 8 4.5625 C8 6.5425 8 8.5225 8 10.5625 C4.04 10.5625 0.08 10.5625 -4 10.5625 C-3.67 12.2125 -3.34 13.8625 -3 15.5625 C-0.69 15.5625 1.62 15.5625 4 15.5625 C4 14.9025 4 14.2425 4 13.5625 C5.32 13.5625 6.64 13.5625 8 13.5625 C6.63016497 16.72365776 6.0109362 17.5552092 3 19.5625 C0.0625 19.9375 0.0625 19.9375 -3 19.5625 C-5.30275556 17.6954009 -6.67823871 16.20602259 -8 13.5625 C-8.69093988 6.53794454 -8.69093988 6.53794454 -5.875 2.5625 C-3 0.5625 -3 0.5625 0 0 Z " fill="#0F0F0F" transform="translate(507,39.4375)"/>
<path d="M0 0 C4.04381805 0.84246209 5.53235541 2.35899981 8 5.625 C8 7.275 8 8.925 8 10.625 C4.04 10.625 0.08 10.625 -4 10.625 C-3.67 11.945 -3.34 13.265 -3 14.625 C0.83225427 14.71412219 4.26562152 14.50367729 8 13.625 C6.25 17.5 6.25 17.5 4 18.625 C-3.01599016 19.19080566 -3.01599016 19.19080566 -6.5 17.1875 C-8.74064073 13.35973876 -8.8840096 9.94511646 -8 5.625 C-5.56887157 2.12131491 -4.17862962 0.87054784 0 0 Z " fill="#0C0C0C" transform="translate(327,39.375)"/>
<path d="M0 0 C3.73877999 0.7789125 5.45149405 1.77666982 8 4.625 C8 6.605 8 8.585 8 10.625 C4.04 10.625 0.08 10.625 -4 10.625 C-3.01 12.275 -2.02 13.925 -1 15.625 C1.62694422 16.04280879 1.62694422 16.04280879 4 15.625 C4 14.965 4 14.305 4 13.625 C5.32 13.625 6.64 13.625 8 13.625 C6.63016497 16.78615776 6.0109362 17.6177092 3 19.625 C-0.47924476 20.06915891 -2.30917755 20.05443017 -5.3125 18.1875 C-7.7621025 14.46773324 -8.44418356 11.05917723 -8 6.625 C-6.31527371 2.83050179 -4.14591473 0.86373223 0 0 Z " fill="#0E0E0E" transform="translate(605,39.375)"/>
<path d="M0 0 C2.475 0.495 2.475 0.495 5 1 C6.7634375 0.6596875 6.7634375 0.6596875 8.5625 0.3125 C12 0 12 0 14.19921875 1.52734375 C16.64967367 4.89206818 16.40241623 7.13476167 16.25 11.25 C16.21390625 12.51328125 16.1778125 13.7765625 16.140625 15.078125 C16.07101562 16.52445313 16.07101562 16.52445313 16 18 C14.35 18 12.7 18 11 18 C10.67 13.38 10.34 8.76 10 4 C8.35 4.33 6.7 4.66 5 5 C4.67 9.29 4.34 13.58 4 18 C2.68 18 1.36 18 0 18 C0 12.06 0 6.12 0 0 Z " fill="#282828" transform="translate(260,74)"/>
<path d="M0 0 C2.1634273 3.14960499 1.68377845 6.50829946 1.55859375 10.18359375 C1.54505859 10.93318359 1.53152344 11.68277344 1.51757812 12.45507812 C1.48227914 14.30239142 1.42847292 16.14933441 1.37109375 17.99609375 C0.05109375 17.99609375 -1.26890625 17.99609375 -2.62890625 17.99609375 C-2.95890625 13.37609375 -3.28890625 8.75609375 -3.62890625 3.99609375 C-5.27890625 3.99609375 -6.92890625 3.99609375 -8.62890625 3.99609375 C-8.95890625 8.61609375 -9.28890625 13.23609375 -9.62890625 17.99609375 C-10.94890625 17.99609375 -12.26890625 17.99609375 -13.62890625 17.99609375 C-13.62890625 12.05609375 -13.62890625 6.11609375 -13.62890625 -0.00390625 C-2.56979073 -1.5837799 -2.56979073 -1.5837799 0 0 Z " fill="#1D1D1D" transform="translate(523.62890625,75.00390625)"/>
<path d="M0 0 C1.32 0 2.64 0 4 0 C4.33 0.66 4.66 1.32 5 2 C5.66 1.34 6.32 0.68 7 0 C13.46153846 0.46153846 13.46153846 0.46153846 16 3 C16.14497985 5.58064129 16.18677545 8.04943884 16.125 10.625 C16.11597656 11.33140625 16.10695313 12.0378125 16.09765625 12.765625 C16.07407603 14.51056098 16.03820461 16.25532295 16 18 C14.68 18 13.36 18 12 18 C11.67 13.71 11.34 9.42 11 5 C9.68 4.67 8.36 4.34 7 4 C4.31907309 6.68092691 4.61329743 8.39167363 4.375 12.125 C4.30023437 13.22070312 4.22546875 14.31640625 4.1484375 15.4453125 C4.09945312 16.28835937 4.05046875 17.13140625 4 18 C2.68 18 1.36 18 0 18 C0 12.06 0 6.12 0 0 Z " fill="#101010" transform="translate(530,40)"/>
<path d="M0 0 C2.475 0.495 2.475 0.495 5 1 C5.33 0.67 5.66 0.34 6 0 C9.45459363 -0.38384374 11.31340713 -0.49252905 14.18359375 1.56640625 C16.67211162 4.90048503 16.40221308 7.14024683 16.25 11.25 C16.21390625 12.51328125 16.1778125 13.7765625 16.140625 15.078125 C16.07101562 16.52445313 16.07101562 16.52445313 16 18 C14.68 18 13.36 18 12 18 C11.67 13.71 11.34 9.42 11 5 C9.35 4.67 7.7 4.34 6 4 C4.12175109 5.87824891 4.60897603 9.03935276 4.4375 11.5625 C4.31181641 13.35880859 4.31181641 13.35880859 4.18359375 15.19140625 C4.12300781 16.11824219 4.06242187 17.04507813 4 18 C2.68 18 1.36 18 0 18 C0 12.06 0 6.12 0 0 Z " fill="#1B1B1B" transform="translate(338,40)"/>
<path d="M0 0 C1.32 0 2.64 0 4 0 C4.33 4.62 4.66 9.24 5 14 C6.32 14.33 7.64 14.66 9 15 C10.94090826 13.05909174 10.39919435 9.52706098 10.5625 6.9375 C10.64628906 5.64714844 10.73007812 4.35679688 10.81640625 3.02734375 C10.87699219 2.02832031 10.93757813 1.02929688 11 0 C12.32 0 13.64 0 15 0 C15 5.94 15 11.88 15 18 C13.68 17.67 12.36 17.34 11 17 C10.01 17.66 9.02 18.32 8 19 C5.5 19.375 5.5 19.375 3 19 C0.3050458 16.47788134 0.0044804 15.05615436 -0.29296875 11.328125 C-0.27316751 9.96843965 -0.23759202 8.6089066 -0.1875 7.25 C-0.17396484 6.55261719 -0.16042969 5.85523438 -0.14648438 5.13671875 C-0.1112945 3.42414459 -0.05749155 1.71197059 0 0 Z " fill="#171717" transform="translate(463,40)"/>
<path d="M0 0 C1.32 0 2.64 0 4 0 C4.33 4.95 4.66 9.9 5 15 C6.65 14.34 8.3 13.68 10 13 C10.33 8.71 10.66 4.42 11 0 C12.32 0 13.64 0 15 0 C15 5.61 15 11.22 15 17 C13.35 17 11.7 17 10 17 C9.67 17.33 9.34 17.66 9 18 C6.125 18.3125 6.125 18.3125 3 18 C0.37451242 15.55726097 0.01309239 14.1543156 -0.29296875 10.546875 C-0.25816406 9.29390625 -0.22335937 8.0409375 -0.1875 6.75 C-0.16042969 5.48671875 -0.13335937 4.2234375 -0.10546875 2.921875 C-0.07066406 1.95765625 -0.03585937 0.9934375 0 0 Z " fill="#101010" transform="translate(438,75)"/>
<path d="M0 0 C3.0625 0.3125 3.0625 0.3125 4.7421875 1.3515625 C6.77815552 4.37539666 6.3777465 7.49188458 6.25 11 C6.23646484 11.70189453 6.22292969 12.40378906 6.20898438 13.12695312 C6.17370182 14.85579829 6.11989583 16.58424765 6.0625 18.3125 C4.7425 18.3125 3.4225 18.3125 2.0625 18.3125 C1.7325 13.6925 1.4025 9.0725 1.0625 4.3125 C-0.5875 4.6425 -2.2375 4.9725 -3.9375 5.3125 C-4.2675 9.6025 -4.5975 13.8925 -4.9375 18.3125 C-6.2575 18.3125 -7.5775 18.3125 -8.9375 18.3125 C-8.9375 12.7025 -8.9375 7.0925 -8.9375 1.3125 C-7.6175 1.6425 -6.2975 1.9725 -4.9375 2.3125 C-2.9375 0.3125 -2.9375 0.3125 0 0 Z " fill="#0A0A0A" transform="translate(279.9375,39.6875)"/>
<path d="M0 0 C3.0625 0.3125 3.0625 0.3125 4.7421875 1.3515625 C6.77815552 4.37539666 6.3777465 7.49188458 6.25 11 C6.23646484 11.70189453 6.22292969 12.40378906 6.20898438 13.12695312 C6.17370182 14.85579829 6.11989583 16.58424765 6.0625 18.3125 C4.7425 18.3125 3.4225 18.3125 2.0625 18.3125 C1.7325 14.0225 1.4025 9.7325 1.0625 5.3125 C-0.2575 4.9825 -1.5775 4.6525 -2.9375 4.3125 C-5.61842691 6.99342691 -5.32420257 8.70417363 -5.5625 12.4375 C-5.63726563 13.53320312 -5.71203125 14.62890625 -5.7890625 15.7578125 C-5.83804688 16.60085937 -5.88703125 17.44390625 -5.9375 18.3125 C-6.9275 18.3125 -7.9175 18.3125 -8.9375 18.3125 C-8.9375 12.7025 -8.9375 7.0925 -8.9375 1.3125 C-7.6175 1.6425 -6.2975 1.9725 -4.9375 2.3125 C-2.9375 0.3125 -2.9375 0.3125 0 0 Z " fill="#0B0B0B" transform="translate(625.9375,39.6875)"/>
<path d="M0 0 C2.475 0.495 2.475 0.495 5 1 C5.99 3.97 6.98 6.94 8 10 C9.53521956 7.69717067 10.58357909 5.82137765 11.625 3.3125 C12.07875 2.219375 12.5325 1.12625 13 0 C14.32 0 15.64 0 17 0 C15 6 13 12 11 18 C9.35 18 7.7 18 6 18 C4.9936345 15.56495491 3.99473587 13.12729136 3 10.6875 C2.71382812 9.99720703 2.42765625 9.30691406 2.1328125 8.59570312 C0.91089256 5.58454326 0 3.28113016 0 0 Z " fill="#181818" transform="translate(221,40)"/>
<path d="M0 0 C2.475 0.495 2.475 0.495 5 1 C5.99 4.3 6.98 7.6 8 11 C9.32 7.37 10.64 3.74 12 0 C13.32 0 14.64 0 16 0 C14.49829538 5.98551772 13.05773837 11.61255621 10 17 C7.67578125 16.93359375 7.67578125 16.93359375 5 16 C3.7712301 13.6001062 2.95563956 11.60365677 2.1875 9.0625 C1.97158203 8.41603516 1.75566406 7.76957031 1.53320312 7.10351562 C0 2.41629464 0 2.41629464 0 0 Z " fill="#111111" transform="translate(481,41)"/>
<path d="M0 0 C0.94875 0.04125 1.8975 0.0825 2.875 0.125 C2.875 1.115 2.875 2.105 2.875 3.125 C1.555 3.125 0.235 3.125 -1.125 3.125 C-1.125 4.115 -1.125 5.105 -1.125 6.125 C-0.135 6.125 0.855 6.125 1.875 6.125 C1.875 7.445 1.875 8.765 1.875 10.125 C0.885 10.125 -0.105 10.125 -1.125 10.125 C-1.125 14.745 -1.125 19.365 -1.125 24.125 C-2.445 24.125 -3.765 24.125 -5.125 24.125 C-5.125 19.175 -5.125 14.225 -5.125 9.125 C-6.115 9.125 -7.105 9.125 -8.125 9.125 C-8.125 8.465 -8.125 7.805 -8.125 7.125 C-7.135 7.125 -6.145 7.125 -5.125 7.125 C-5.186875 5.949375 -5.186875 5.949375 -5.25 4.75 C-5.05795839 0.71712612 -3.942779 0.15771116 0 0 Z " fill="#0F0F0F" transform="translate(203.125,67.875)"/>
<path d="M0 0 C1.32 0 2.64 0 4 0 C4 1.65 4 3.3 4 5 C4.99 5 5.98 5 7 5 C7 6.32 7 7.64 7 9 C6.01 9 5.02 9 4 9 C4 12.63 4 16.26 4 20 C4.99 20 5.98 20 7 20 C7 20.99 7 21.98 7 23 C5.00045254 23.04254356 2.99958364 23.04080783 1 23 C0 22 0 22 -0.09765625 18.83984375 C-0.08025391 16.90818359 -0.08025391 16.90818359 -0.0625 14.9375 C-0.05347656 13.64714844 -0.04445313 12.35679688 -0.03515625 11.02734375 C-0.02355469 10.02832031 -0.01195312 9.02929688 0 8 C-0.99 8 -1.98 8 -3 8 C-3 7.01 -3 6.02 -3 5 C-2.01 5 -1.02 5 0 5 C0 3.35 0 1.7 0 0 Z " fill="#191919" transform="translate(359,35)"/>
<path d="M0 0 C1.32 0 2.64 0 4 0 C4 1.98 4 3.96 4 6 C4.99 6 5.98 6 7 6 C7 6.99 7 7.98 7 9 C6.01 9 5.02 9 4 9 C4 12.63 4 16.26 4 20 C4.99 20 5.98 20 7 20 C7 20.99 7 21.98 7 23 C5.00045254 23.04254356 2.99958364 23.04080783 1 23 C0 22 0 22 -0.09765625 19.05859375 C-0.08605469 17.86363281 -0.07445312 16.66867188 -0.0625 15.4375 C-0.05347656 14.23996094 -0.04445313 13.04242188 -0.03515625 11.80859375 C-0.02355469 10.88175781 -0.01195312 9.95492187 0 9 C-0.99 9 -1.98 9 -3 9 C-3 8.01 -3 7.02 -3 6 C-2.01 6 -1.02 6 0 6 C0 4.02 0 2.04 0 0 Z " fill="#111111" transform="translate(637,35)"/>
<path d="M0 0 C0.99 0.66 1.98 1.32 3 2 C2.44271087 5.34373475 1.64826111 8.03312999 0 11 C-5.42857143 11.36190476 -5.42857143 11.36190476 -7.875 9.8125 C-9.42229478 7.31963619 -9.50405716 5.88032665 -9 3 C-6.23044392 0.02529162 -3.9819424 -0.51050544 0 0 Z " fill="#161616" transform="translate(537,82)"/>
<path d="M0 0 C1.0209375 0.3403125 1.0209375 0.3403125 2.0625 0.6875 C2.805 0.873125 3.5475 1.05875 4.3125 1.25 C4.89 1.394375 5.4675 1.53875 6.0625 1.6875 C5.7325 4.3275 5.4025 6.9675 5.0625 9.6875 C1.8125 10.4375 1.8125 10.4375 -1.9375 10.6875 C-4.4375 9.0625 -4.4375 9.0625 -5.9375 6.6875 C-5.875 4.0625 -5.875 4.0625 -4.9375 1.6875 C-1.9375 -0.3125 -1.9375 -0.3125 0 0 Z " fill="#202020" transform="translate(245.9375,82.3125)"/>
<path d="M0 0 C2.4375 0.8125 2.4375 0.8125 4.4375 2.8125 C4.78240322 6.86511287 4.73913882 8.36004176 2.4375 11.8125 C-0.5625 12.1875 -0.5625 12.1875 -3.5625 11.8125 C-5.87532587 8.34326119 -5.98728586 6.89044425 -5.5625 2.8125 C-3.8855372 0.07640281 -3.22049925 -0.23564629 0 0 Z " fill="#F0F0F0" transform="translate(185.5625,77.1875)"/>
<path d="M0 0 C3.0625 0.1875 3.0625 0.1875 5.0625 2.1875 C5.44330215 5.69087981 5.46495078 7.55028626 3.5625 10.5625 C3.0675 11.09875 2.5725 11.635 2.0625 12.1875 C-0.3125 11.875 -0.3125 11.875 -2.9375 11.1875 C-4.9375 8.1875 -4.9375 8.1875 -4.625 4.5625 C-3.74428643 0.23899701 -3.74428643 0.23899701 0 0 Z " fill="#EEEEEE" transform="translate(424.9375,77.8125)"/>
<path d="M0 0 C3.29714793 0.32971479 4.6226839 0.6226839 7 3 C7.34490322 7.05261287 7.30163882 8.54754176 5 12 C2 12.375 2 12.375 -1 12 C-3 9 -3 9 -2.75 5.4375 C-2 2 -2 2 0 0 Z " fill="#EFEFEF" transform="translate(304,77)"/>
<path d="M0 0 C2.4375 0.875 2.4375 0.875 4.4375 3.875 C3.87146226 10.44103774 3.87146226 10.44103774 2.4375 11.875 C-0.5 12.125 -0.5 12.125 -3.5625 11.875 C-5.87532587 8.40576119 -5.98728586 6.95294425 -5.5625 2.875 C-3.8925532 0.15034996 -3.20820586 -0.15649785 0 0 Z " fill="#F1F1F1" transform="translate(451.5625,43.125)"/>
<path d="M0 0 C2.9375 0.1875 2.9375 0.1875 3.9375 1.1875 C4.10546875 3.18359375 4.10546875 3.18359375 4.125 5.625 C4.13917969 6.42808594 4.15335938 7.23117188 4.16796875 8.05859375 C3.9375 10.1875 3.9375 10.1875 1.9375 12.1875 C-1.35964793 11.85778521 -2.6851839 11.5648161 -5.0625 9.1875 C-5.3125 5.6875 -5.3125 5.6875 -5.0625 2.1875 C-3.0625 0.1875 -3.0625 0.1875 0 0 Z " fill="#F3F3F3" transform="translate(556.0625,77.8125)"/>
<path d="M0 0 C2.5 -0.3125 2.5 -0.3125 5 0 C7 2 7 2 7.265625 3.875 C7.26046875 4.57625 7.2553125 5.2775 7.25 6 C7.25515625 6.70125 7.2603125 7.4025 7.265625 8.125 C7 10 7 10 5 12 C2.5 12.25 2.5 12.25 0 12 C-2 10 -2 10 -2.25 6.5625 C-2 3 -2 3 0 0 Z " fill="#F6F6F6" transform="translate(208,43)"/>
<path d="M0 0 C0.70125 0.2475 1.4025 0.495 2.125 0.75 C3.79019519 1.09060811 5.45657466 1.42558396 7.125 1.75 C6.47677251 5.25042844 5.31756847 7.9309834 3.125 10.75 C0.18732599 11.3375348 -1.17760677 11.20691281 -3.6875 9.5625 C-5.30025784 7.10092224 -5.3084014 5.63934264 -4.875 2.75 C-3.37142964 0.49464445 -2.76181801 -0.3682424 0 0 Z " fill="#131313" transform="translate(322.875,82.25)"/>
<path d="M0 0 C0 0.66 0 1.32 0 2 C1.98 2 3.96 2 6 2 C5.67 4.64 5.34 7.28 5 10 C-1.625 11.25 -1.625 11.25 -5 9 C-5.375 5.5 -5.375 5.5 -5 2 C-2 0 -2 0 0 0 Z " fill="#1B1B1B" transform="translate(284,82)"/>
<path d="M0 0 C0.598125 0.20625 1.19625 0.4125 1.8125 0.625 C1.4825 0.955 1.1525 1.285 0.8125 1.625 C2.4625 1.625 4.1125 1.625 5.8125 1.625 C5.22446203 4.64919525 4.58571882 7.64258453 3.8125 10.625 C-1.8125 10.875 -1.8125 10.875 -5.1875 8.625 C-5.5625 5.125 -5.5625 5.125 -5.1875 1.625 C-2.1875 -0.375 -2.1875 -0.375 0 0 Z " fill="#191919" transform="translate(573.1875,82.375)"/>
<path d="M0 0 C1.32 0 2.64 0 4 0 C4 1.32 4 2.64 4 4 C2.35 4.66 0.7 5.32 -1 6 C-1.33 9.96 -1.66 13.92 -2 18 C-3.32 18 -4.64 18 -6 18 C-6 12.39 -6 6.78 -6 1 C-4.68 1.33 -3.36 1.66 -2 2 C-1.34 1.34 -0.68 0.68 0 0 Z " fill="#0C0C0C" transform="translate(265,40)"/>
<path d="M0 0 C2.875 -0.125 2.875 -0.125 6 0 C8 2 8 2 8.1953125 5.6953125 C8.182009 7.17200108 8.15814835 8.64862358 8.125 10.125 C8.11597656 10.87910156 8.10695313 11.63320313 8.09765625 12.41015625 C8.0740687 14.27357254 8.03819719 16.13682593 8 18 C6.68 18 5.36 18 4 18 C3.96132813 16.51886719 3.96132813 16.51886719 3.921875 15.0078125 C3.86515625 13.72648437 3.8084375 12.44515625 3.75 11.125 C3.70359375 9.84882812 3.6571875 8.57265625 3.609375 7.2578125 C3.37444944 3.90811895 3.37444944 3.90811895 0.953125 2.5546875 C0.30859375 2.37164062 -0.3359375 2.18859375 -1 2 C-0.67 1.34 -0.34 0.68 0 0 Z " fill="#171717" transform="translate(307,40)"/>
<path d="M0 0 C2.31 0.33 4.62 0.66 7 1 C6.68289063 1.52078125 6.36578125 2.0415625 6.0390625 2.578125 C4.71079489 5.67408709 4.57635753 8.39404121 4.375 11.75 C4.26285156 13.50570312 4.26285156 13.50570312 4.1484375 15.296875 C4.07496094 16.63492188 4.07496094 16.63492188 4 18 C2.68 18 1.36 18 0 18 C0 12.06 0 6.12 0 0 Z " fill="#0F0F0F" transform="translate(260,74)"/>
<path d="M0 0 C1.32 0 2.64 0 4 0 C4.66 0.66 5.32 1.32 6 2 C5.81864449 4.76713403 5.5356614 7.3919776 5.125 10.125 C5.02058594 10.87910156 4.91617188 11.63320313 4.80859375 12.41015625 C4.54895402 14.27484156 4.27574971 16.13762887 4 18 C2.68 18 1.36 18 0 18 C0 12.06 0 6.12 0 0 Z " fill="#1E1E1E" transform="translate(530,40)"/>
<path d="M0 0 C1.32 0 2.64 0 4 0 C4 1.32 4 2.64 4 4 C2.7934375 4.4640625 2.7934375 4.4640625 1.5625 4.9375 C-0.89080405 5.76335345 -0.89080405 5.76335345 -2 7 C-2.23363881 8.84891946 -2.41303635 10.70488031 -2.5625 12.5625 C-2.64628906 13.57441406 -2.73007812 14.58632813 -2.81640625 15.62890625 C-2.87699219 16.41136719 -2.93757812 17.19382812 -3 18 C-3.99 18 -4.98 18 -6 18 C-6 12.39 -6 6.78 -6 1 C-4.68 1.33 -3.36 1.66 -2 2 C-1.34 1.34 -0.68 0.68 0 0 Z " fill="#020202" transform="translate(525,40)"/>
<path d="M0 0 C2.475 0.495 2.475 0.495 5 1 C4.67 6.28 4.34 11.56 4 17 C2.68 17 1.36 17 0 17 C0 11.39 0 5.78 0 0 Z " fill="#111111" transform="translate(271,41)"/>
<path d="M0 0 C0.99 0 1.98 0 3 0 C4.2062252 3.61867559 4.10816918 6.92506251 4.0625 10.6875 C4.05798828 11.38939453 4.05347656 12.09128906 4.04882812 12.81445312 C4.03706927 14.54300538 4.01913454 16.27151365 4 18 C2.68 18 1.36 18 0 18 C0 12.06 0 6.12 0 0 Z " fill="#151515" transform="translate(510,75)"/>
<path d="M0 0 C2.475 0.495 2.475 0.495 5 1 C4.34 6.28 3.68 11.56 3 17 C2.01 17 1.02 17 0 17 C0 11.39 0 5.78 0 0 Z " fill="#040404" transform="translate(569,41)"/>
<path d="M0 0 C0.99 0 1.98 0 3 0 C3 0.66 3 1.32 3 2 C3.66 2 4.32 2 5 2 C4.67 2.99 4.34 3.98 4 5 C3.77674186 7.05893621 3.59294241 9.12233653 3.4375 11.1875 C3.35371094 12.27417969 3.26992188 13.36085938 3.18359375 14.48046875 C3.12300781 15.31191406 3.06242188 16.14335938 3 17 C2.01 17 1.02 17 0 17 C0 11.39 0 5.78 0 0 Z " fill="#010101" transform="translate(617,41)"/>
<path d="M0 0 C1.32 0 2.64 0 4 0 C3.67 1.98 3.34 3.96 3 6 C4.65 6.33 6.3 6.66 8 7 C7.67 7.99 7.34 8.98 7 10 C1.57142857 10.36190476 1.57142857 10.36190476 -0.875 8.8125 C-2.38332602 6.38241919 -2.36023622 4.80984248 -2 2 C-1.34 1.34 -0.68 0.68 0 0 Z " fill="#0E0E0E" transform="translate(492,83)"/>
<path d="M0 0 C0.33 0 0.66 0 1 0 C1 2.64 1 5.28 1 8 C-0.65 7.67 -2.3 7.34 -4 7 C-4 7.66 -4 8.32 -4 9 C-6.3125 9.6875 -6.3125 9.6875 -9 10 C-10.8125 8.75 -10.8125 8.75 -12 7 C-12 6.01 -12 5.02 -12 4 C-8.04 4 -4.08 4 0 4 C0 2.68 0 1.36 0 0 Z " fill="#C8C8C8" transform="translate(613,46)"/>
<path d="M0 0 C0.33 0 0.66 0 1 0 C1.125 4.75 1.125 4.75 0 7 C-1.32 7 -2.64 7 -4 7 C-4 7.66 -4 8.32 -4 9 C-6.3125 9.6875 -6.3125 9.6875 -9 10 C-10.8125 8.75 -10.8125 8.75 -12 7 C-12 6.01 -12 5.02 -12 4 C-8.04 4 -4.08 4 0 4 C0 2.68 0 1.36 0 0 Z " fill="#C8C8C8" transform="translate(565,46)"/>
<path d="M0 0 C0.33 0 0.66 0 1 0 C1.125 4.75 1.125 4.75 0 7 C-1.32 7 -2.64 7 -4 7 C-4 7.66 -4 8.32 -4 9 C-6.3125 9.6875 -6.3125 9.6875 -9 10 C-10.8125 8.75 -10.8125 8.75 -12 7 C-12 6.01 -12 5.02 -12 4 C-8.04 4 -4.08 4 0 4 C0 2.68 0 1.36 0 0 Z " fill="#C8C8C8" transform="translate(515,46)"/>
<path d="M0 0 C4.29 0 8.58 0 13 0 C12.67 1.32 12.34 2.64 12 4 C10.37675914 4.22162329 8.751279 4.42689803 7.125 4.625 C5.76761719 4.79902344 5.76761719 4.79902344 4.3828125 4.9765625 C3.59648437 4.98429687 2.81015625 4.99203125 2 5 C1.34 4.34 0.68 3.68 0 3 C0 2.01 0 1.02 0 0 Z " fill="#DADADA" transform="translate(243,50)"/>
<path d="M0 0 C0.66 0 1.32 0 2 0 C2 0.66 2 1.32 2 2 C2.66 2 3.32 2 4 2 C3.67 6.95 3.34 11.9 3 17 C2.01 17 1.02 17 0 17 C0 11.39 0 5.78 0 0 Z " fill="#000000" transform="translate(339,41)"/>
<path d="M0 0 C0.66 0 1.32 0 2 0 C2 0.66 2 1.32 2 2 C2.66 2 3.32 2 4 2 C3.67 6.95 3.34 11.9 3 17 C2.01 17 1.02 17 0 17 C0 11.39 0 5.78 0 0 Z " fill="#030303" transform="translate(291,41)"/>
<path d="M0 0 C3.96 0 7.92 0 12 0 C12 0.99 12 1.98 12 3 C8.17010894 4.80230168 5.21878192 5.19622241 1 5 C0.67 3.35 0.34 1.7 0 0 Z " fill="#DDDDDD" transform="translate(323,50)"/>
<path d="M0 0 C-0.875 4.875 -0.875 4.875 -2 6 C-3.66617115 6.04063832 -5.33388095 6.042721 -7 6 C-7.33 4.68 -7.66 3.36 -8 2 C-4.77208445 -0.1519437 -3.71599191 -0.20086443 0 0 Z " fill="#DBDBDB" transform="translate(540,84)"/>
<path d="M0 0 C-0.875 4.875 -0.875 4.875 -2 6 C-3.66617115 6.04063832 -5.33388095 6.042721 -7 6 C-7.33 4.68 -7.66 3.36 -8 2 C-4.77208445 -0.1519437 -3.71599191 -0.20086443 0 0 Z " fill="#DADADA" transform="translate(502,84)"/>
<path d="M0 0 C2.97 0.495 2.97 0.495 6 1 C5.67 2.32 5.34 3.64 5 5 C2.36 5.33 -0.28 5.66 -3 6 C-3 5.34 -3 4.68 -3 4 C-3.99 4 -4.98 4 -6 4 C-5.67 3.34 -5.34 2.68 -5 2 C-3.02 2.495 -3.02 2.495 -1 3 C-0.67 2.01 -0.34 1.02 0 0 Z " fill="#E0E0E0" transform="translate(496,77)"/>
<path d="M0 0 C-0.57344937 2.86724686 -0.8614515 3.8614515 -3 6 C-5.625 5.625 -5.625 5.625 -8 5 C-8 3.68 -8 2.36 -8 1 C-5.29120665 -0.35439668 -2.99066732 -0.06501451 0 0 Z " fill="#DDDDDD" transform="translate(330,84)"/>
<path d="M0 0 C0.33 1.32 0.66 2.64 1 4 C-1.97 4 -4.94 4 -8 4 C-7.67 2.68 -7.34 1.36 -7 0 C-4.3333581 -1.33332095 -2.83319697 -0.67102033 0 0 Z " fill="#D5D5D5" transform="translate(251,44)"/>
<path d="M0 0 C-0.33 1.65 -0.66 3.3 -1 5 C-2.65 5.33 -4.3 5.66 -6 6 C-6.33 4.35 -6.66 2.7 -7 1 C-4.53721199 -0.231394 -2.7204945 -0.07159196 0 0 Z " fill="#E3E3E3" transform="translate(579,84)"/>
<path d="M0 0 C-0.33 1.32 -0.66 2.64 -1 4 C-7.625 4.25 -7.625 4.25 -11 2 C-9.68 2 -8.36 2 -7 2 C-7 1.34 -7 0.68 -7 0 C-4.3333581 -1.33332095 -2.83319697 -0.67102033 0 0 Z " fill="#E2E2E2" transform="translate(540,78)"/>
<path d="M0 0 C1.67542976 0.28604898 3.34385343 0.61781233 5 1 C5.33 2.32 5.66 3.64 6 5 C3.03 5 0.06 5 -3 5 C-1 1 -1 1 0 0 Z " fill="#D8D8D8" transform="translate(325,43)"/>
<path d="M0 0 C1.4540625 0.0309375 1.4540625 0.0309375 2.9375 0.0625 C2.6075 1.7125 2.2775 3.3625 1.9375 5.0625 C-0.0425 5.0625 -2.0225 5.0625 -4.0625 5.0625 C-4.0625 0.08290816 -4.0625 0.08290816 0 0 Z " fill="#E7E7E7" transform="translate(287.0625,83.9375)"/>
<path d="M0 0 C1.4540625 0.0309375 1.4540625 0.0309375 2.9375 0.0625 C2.6075 1.7125 2.2775 3.3625 1.9375 5.0625 C-0.0425 5.0625 -2.0225 5.0625 -4.0625 5.0625 C-4.0625 0.08290816 -4.0625 0.08290816 0 0 Z " fill="#E9E9E9" transform="translate(249.0625,83.9375)"/>
<path d="M0 0 C1.67542976 0.28604898 3.34385343 0.61781233 5 1 C4.67 2.32 4.34 3.64 4 5 C-2.625 5.25 -2.625 5.25 -6 3 C-5.195625 2.690625 -4.39125 2.38125 -3.5625 2.0625 C-1.10919595 1.23664655 -1.10919595 1.23664655 0 0 Z " fill="#E7E7E7" transform="translate(574,77)"/>
<path d="M0 0 C2 0.8125 2 0.8125 4 4.8125 C1.03 4.8125 -1.94 4.8125 -5 4.8125 C-4.67 3.4925 -4.34 2.1725 -4 0.8125 C-2 -0.1875 -2 -0.1875 0 0 Z " fill="#E2E2E2" transform="translate(558,43.1875)"/>
<path d="M0 0 C2 0.8125 2 0.8125 4 4.8125 C1.03 4.8125 -1.94 4.8125 -5 4.8125 C-4.67 3.4925 -4.34 2.1725 -4 0.8125 C-2 -0.1875 -2 -0.1875 0 0 Z " fill="#E2E2E2" transform="translate(508,43.1875)"/>
<path d="M0 0 C2 0.8125 2 0.8125 4 4.8125 C1.03 4.8125 -1.94 4.8125 -5 4.8125 C-4.67 3.4925 -4.34 2.1725 -4 0.8125 C-2 -0.1875 -2 -0.1875 0 0 Z " fill="#E5E5E5" transform="translate(606,43.1875)"/>
<path d="M0 0 C1.32 0 2.64 0 4 0 C4 1.32 4 2.64 4 4 C2.35 4.33 0.7 4.66 -1 5 C-0.67 3.35 -0.34 1.7 0 0 Z " fill="#1F1F1F" transform="translate(525,40)"/>
</svg>
